HIERARCHY
ROOT Hips
{
	OFFSET -3.958830 18.904000 13.208200
	CHANNELS 6 Xposition Yposition Zposition Zrotation Yrotation Xrotation 
	JOINT LHipJoint
	{
		OFFSET 0.000000 0.000000 0.000000
		CHANNELS 3 Zrotation Yrotation Xrotation
		JOINT LeftUpLeg
		{
			OFFSET 1.800000 -1.400000 0.085000
			CHANNELS 3 Zrotation Yrotation Xrotation
			JOINT LeftLeg
			{
				OFFSET 2.215000 -6.000000 0.000000
				CHANNELS 3 Zrotation Yrotation Xrotation
				JOINT LeftFoot
				{
					OFFSET 2.500000 -6.900000 0.000000
					CHANNELS 3 Zrotation Yrotation Xrotation
					JOINT LeftToeBase
					{
						OFFSET 0.200000 -0.500000 1.950000
						CHANNELS 3 Zrotation Yrotation Xrotation
						End Site
						{
							OFFSET 0.000000 0.000000 0.000000
						}
					}
				}
			}
		}
	}
	JOINT RHipJoint
	{
		OFFSET 0.000000 0.000000 0.000000
		CHANNELS 3 Zrotation Yrotation Xrotation
		JOINT RightUpLeg
		{
			OFFSET -1.800000 -1.400000 0.085000
			CHANNELS 3 Zrotation Yrotation Xrotation
			JOINT RightLeg
			{
				OFFSET -2.215000 -6.000000 0.000000
				CHANNELS 3 Zrotation Yrotation Xrotation
				JOINT RightFoot
				{
					OFFSET -2.500000 -6.900000 0.000000
					CHANNELS 3 Zrotation Yrotation Xrotation
					JOINT RightToeBase
					{
						OFFSET -0.200000 -0.500000 1.950000
						CHANNELS 3 Zrotation Yrotation Xrotation
						End Site
						{
							OFFSET 0.000000 0.000000 0.000000
						}
					}
				}
			}
		}
	}
	JOINT LowerBack
	{
		OFFSET 0.000000 0.000000 0.000000
		CHANNELS 3 Zrotation Yrotation Xrotation
		JOINT Spine
		{
			OFFSET -0.087000 1.940000 -0.288900
			CHANNELS 3 Zrotation Yrotation Xrotation
			JOINT Spine1
			{
				OFFSET 0.000000 1.950000 0.060000
				CHANNELS 3 Zrotation Yrotation Xrotation
				JOINT Neck
				{
					OFFSET 0.000000 0.000000 0.000000
					CHANNELS 3 Zrotation Yrotation Xrotation
					JOINT Neck1
					{
						OFFSET 0.000000 1.600000 0.340000
						CHANNELS 3 Zrotation Yrotation Xrotation
						JOINT Head
						{
							OFFSET 0.000000 1.667000 -0.240000
							CHANNELS 3 Zrotation Yrotation Xrotation
							End Site
							{
								OFFSET 0.000000 0.000000 0.000000
							}
						}
					}
				}
				JOINT LeftShoulder
				{
					OFFSET 0.000000 0.000000 0.000000
					CHANNELS 3 Zrotation Yrotation Xrotation
					JOINT LeftArm
					{
						OFFSET 2.700000 1.550000 -0.730000
						CHANNELS 3 Zrotation Yrotation Xrotation
						JOINT LeftForeArm
						{
							OFFSET 5.450000 0.000000 0.000000
							CHANNELS 3 Zrotation Yrotation Xrotation
							JOINT LeftHand
							{
								OFFSET 3.450000 0.000000 0.000000
								CHANNELS 3 Zrotation Yrotation Xrotation
								JOINT LeftHandIndex1
								{
									OFFSET 0.750000 0.000000 0.000000
									CHANNELS 3 Zrotation Yrotation Xrotation
									End Site
									{
										OFFSET 0.000000 0.000000 0.000000
									}
								}
							}
						}
					}
				}
				JOINT RightShoulder
				{
					OFFSET 0.000000 0.000000 0.000000
					CHANNELS 3 Zrotation Yrotation Xrotation
					JOINT RightArm
					{
						OFFSET -2.700000 1.550000 -0.730000
						CHANNELS 3 Zrotation Yrotation Xrotation
						JOINT RightForeArm
						{
							OFFSET -5.450000 0.000000 0.000000
							CHANNELS 3 Zrotation Yrotation Xrotation
							JOINT RightHand
							{
								OFFSET -3.450000 0.000000 0.000000
								CHANNELS 3 Zrotation Yrotation Xrotation
								JOINT RightHandIndex1
								{
									OFFSET -0.750000 0.000000 0.000000
									CHANNELS 3 Zrotation Yrotation Xrotation
									End Site
									{
										OFFSET 0.000000 0.000000 0.000000
									}
								}
							}
						}
					}
				}
			}
		}
	}
}
MOTION
Frames: 14
Frame Time: 0.016667
1.004790 15.917990 -1.265280 1.860646 -1.574316 8.872088 -14.976791 11.416103 3.754420 15.246922 -3.866192 -30.641179 -6.664529 3.127581 1.016349 -1.623021 4.716967 3.530364 0.484630 0.009040 -0.146180 18.675922 -11.019067 1.903539 -10.075210 1.916284 -15.440271 5.376084 -5.175830 15.915260 0.370661 -4.745996 3.190367 0.863730 1.698540 0.327150 -4.466232 0.702780 -6.456758 13.811112 2.950202 -2.510429 -7.057882 3.259170 7.924540 0.275081 -5.361620 -3.376720 -6.748252 2.914002 12.365469 -5.565080 -3.913920 3.982190 -21.792683 6.289890 -2.260100 -41.387098 1.345373 -4.498038 -36.452345 -61.293847 16.393595 -5.027214 3.567258 -0.272170 1.390830 -1.275170 0.656580 20.775719 -2.936110 1.754669 30.201817 -8.862941 -2.488943 52.668641 18.323018 2.737999 0.932059 -2.528865 -0.847590 0.875160 0.318590 -0.177820 
1.035890 15.887120 -1.270640 1.607730 -1.686398 9.144849 -14.970157 11.366025 3.739263 15.350887 -3.870234 -30.440636 -5.831283 2.886065 0.002518 -1.657332 4.722075 3.550000 0.433380 -0.058140 -0.148360 18.682616 -11.009249 1.933031 -10.469483 2.008842 -15.775585 6.241945 -5.420551 15.872060 0.397694 -4.836066 3.149868 0.851150 1.739270 0.339600 -4.488892 0.799364 -6.469786 13.986768 2.994879 -2.694599 -7.133915 3.206557 7.576955 0.552002 -4.975568 -3.210494 -6.067856 3.105868 12.095176 -6.278420 -3.236240 4.648090 -22.125283 6.606293 -2.306847 -41.715877 1.657755 -4.503060 -35.417920 -62.289273 16.157306 -5.106130 3.555687 -0.296350 1.449420 -1.315970 0.627770 20.606375 -3.566297 1.441284 30.929520 -8.244018 -2.318589 50.909429 18.687829 2.794459 0.921778 -2.518838 -0.883530 0.874220 0.352230 -0.200220 
1.089550 15.856140 -1.276030 1.390334 -1.777856 9.521921 -14.971693 11.319852 3.750395 15.416027 -3.916683 -30.127657 -5.619296 2.729673 -1.011242 -1.617450 4.753631 3.568979 0.355220 -0.147520 -0.190690 18.679535 -10.990337 1.948520 -10.942795 2.099005 -16.300996 6.707465 -5.538081 15.779815 0.441040 -4.895101 3.126665 0.803640 1.787910 0.358540 -4.484107 0.863062 -6.485323 13.758212 2.966993 -2.835611 -6.825000 3.028034 6.847179 0.776823 -4.507172 -3.065406 -5.218001 3.121557 11.610777 -6.844550 -2.612510 6.011000 -22.089981 7.348498 -2.246706 -43.045853 1.992597 -4.552868 -33.677371 -63.322832 15.566466 -5.167394 3.591522 -0.353930 1.508400 -1.367100 0.611650 20.192422 -4.554048 1.016891 31.829070 -7.426804 -2.078078 49.023101 20.034093 3.336956 0.941900 -2.538908 -0.894100 0.836190 0.379380 -0.194820 
1.157760 15.844920 -1.283550 1.000934 -1.504595 9.643314 -14.975970 11.340186 3.718773 15.424456 -3.864802 -29.853738 -5.989752 2.857479 -0.586180 -1.568376 4.762641 3.570467 0.318380 -0.174140 -0.217950 18.667596 -10.988205 1.979951 -11.263183 2.114669 -16.651204 7.259198 -5.706404 15.718887 0.446882 -4.931710 3.129010 0.768120 1.791480 0.369810 -4.461277 0.872733 -6.488607 13.757241 2.794246 -2.863851 -6.624287 2.734914 6.525924 1.197718 -3.906093 -3.170513 -4.204085 2.947740 11.338091 -7.156180 -2.064340 6.593510 -21.281467 7.829129 -2.179143 -45.551999 1.399928 -4.653911 -29.926019 -62.228620 13.145222 -5.174526 3.566894 -0.377130 1.529120 -1.367700 0.610660 18.662635 -5.489036 0.869731 34.160660 -6.661576 -2.304586 47.730318 23.502116 4.732437 0.960256 -2.536939 -0.877330 0.804900 0.377620 -0.185990 
1.229700 15.862010 -1.288230 0.649979 -1.446387 9.423094 -14.968007 11.459790 3.617127 15.234223 -3.697440 -29.471057 -6.949520 3.380130 1.867238 -1.526348 4.770865 3.524367 0.344410 -0.151320 -0.176800 18.656606 -11.062647 2.011183 -11.173022 2.092661 -16.850813 6.909697 -5.660881 15.847287 0.409796 -4.858726 3.139297 0.735120 1.705790 0.396350 -4.453646 0.889048 -6.446224 13.860462 2.682306 -2.726289 -6.550216 2.520529 6.494126 1.593136 -3.298181 -3.317895 -3.186491 2.393057 11.474244 -7.395970 -1.788680 6.181590 -20.374509 8.063726 -2.039748 -47.274615 1.183018 -4.934289 -28.633417 -60.176997 11.872438 -5.109757 3.557448 -0.334420 1.477380 -1.293990 0.601630 17.051350 -6.202979 0.756773 37.968137 -5.695417 -3.051443 43.866982 25.286739 4.812983 1.008987 -2.482232 -0.823640 0.744200 0.346020 -0.195800 
1.295570 15.900260 -1.286770 0.659855 -1.911932 9.190719 -14.963743 11.632543 3.488585 14.657168 -3.565994 -28.747511 -8.230180 4.167872 5.072163 -1.483226 4.898696 3.458110 0.315950 -0.193970 -0.155130 18.636252 -11.153386 2.034419 -11.236958 2.144232 -17.797482 6.314408 -5.691592 16.967236 0.410381 -4.798102 3.151805 0.681230 1.658540 0.396560 -4.423710 0.869226 -6.367918 13.171507 2.788801 -2.522140 -6.001754 2.534260 6.251954 1.769114 -2.608590 -3.326605 -2.051863 1.780577 11.671774 -7.758480 -1.495710 6.189130 -19.866800 8.314083 -1.827172 -48.319445 1.624029 -5.257546 -30.062712 -58.660402 12.211335 -5.083171 3.524344 -0.299780 1.446880 -1.255460 0.576870 16.252112 -6.847951 0.379491 41.486655 -4.452649 -3.603313 38.426307 24.263275 3.577993 1.072913 -2.372989 -0.812660 0.716960 0.341320 -0.212610 
1.370650 15.952570 -1.281520 0.256502 -2.627247 8.823123 -14.946596 11.781470 3.375653 14.475909 -3.333940 -27.638549 -9.770038 5.202783 8.418267 -1.408546 5.194040 3.325999 0.273230 -0.266300 -0.105710 18.632738 -11.237555 2.060509 -10.973148 2.279490 -19.050795 5.672811 -5.841572 18.904867 0.399218 -4.768675 3.144129 0.602630 1.589400 0.392340 -4.434544 0.880489 -6.319634 13.592252 2.703887 -2.195357 -6.061816 2.402692 6.304604 2.083217 -2.126588 -3.425477 -1.312824 1.146540 12.170977 -8.462500 -0.864150 6.242000 -19.832050 8.278329 -1.787341 -48.222539 1.846926 -5.381728 -31.093582 -56.383564 12.202408 -5.052126 3.462010 -0.244410 1.403480 -1.204530 0.530210 15.606101 -7.307286 0.559650 44.448659 -4.748242 -5.164496 35.222000 29.268109 4.386036 1.103508 -2.301754 -0.807830 0.680910 0.336620 -0.248190 
1.457440 16.012780 -1.279320 0.156715 -2.778602 8.369677 -14.934798 11.923105 3.279902 13.587344 -3.333267 -27.119737 -10.920973 6.517025 13.200970 -1.343173 5.585461 3.135181 0.291740 -0.267140 -0.052740 18.632083 -11.286364 2.102523 -11.159024 2.451991 -20.810003 5.334422 -6.182749 21.519543 0.353587 -4.827505 3.086893 0.570060 1.496190 0.374510 -4.447191 0.838744 -6.288415 13.948676 2.232815 -1.731104 -6.318204 1.957610 6.318567 2.232023 -1.924731 -3.416497 -1.138770 1.415888 12.758209 -8.147840 -0.299520 5.511470 -19.915268 8.217584 -1.708787 -47.898287 2.413008 -5.626837 -32.354190 -53.759644 12.059698 -4.968216 3.426727 -0.161860 1.319970 -1.138580 0.507210 15.411609 -7.528355 0.492432 46.799911 -4.198479 -6.175987 33.281785 32.887555 4.982594 1.126717 -2.249983 -0.796410 0.655370 0.316110 -0.280770 
1.553890 16.066260 -1.285790 0.199498 -2.569178 7.704072 -14.925863 12.040373 3.144257 12.023722 -3.434110 -26.297666 -11.085220 7.723974 18.229420 -1.256052 5.977180 2.929676 0.343380 -0.214480 0.033890 18.637939 -11.273327 2.230841 -11.903405 2.815143 -23.596493 5.947379 -7.206908 25.946810 0.227602 -5.173748 2.904910 0.552750 1.355270 0.355180 -4.469368 0.784343 -6.303257 14.177750 1.795555 -0.995787 -6.811118 1.622259 6.514668 2.613627 -1.551292 -3.465188 -0.735701 1.762757 13.698674 -7.827700 0.538340 3.840690 -20.285833 7.697180 -1.618711 -46.943168 2.793144 -5.738178 -34.763016 -51.099758 12.385004 -4.851902 3.379573 -0.053880 1.203770 -1.021760 0.480680 15.048852 -7.450666 0.536395 48.665511 -3.442923 -6.883073 33.595565 35.891458 5.952915 1.159279 -2.194463 -0.762920 0.631650 0.273650 -0.317530 
1.644350 16.111300 -1.297380 0.003607 -2.205272 6.632780 -14.928428 12.204535 2.954213 10.604380 -3.387403 -24.653103 -10.247925 8.547498 22.467201 -1.156797 6.315158 2.763034 0.371840 -0.232260 0.142720 18.639417 -11.150288 2.454624 -12.409237 3.426792 -26.600121 6.617828 -8.519207 31.249050 0.044483 -5.726180 2.664157 0.480190 1.188430 0.322280 -4.468379 0.516885 -6.396325 14.487334 1.069713 0.459641 -6.623252 1.073226 6.558048 2.722856 -1.241063 -3.689589 -0.540354 1.714908 15.116717 -7.691450 1.298120 2.193680 -21.584468 6.436048 -1.347297 -45.525271 3.615591 -6.196495 -36.742936 -47.661648 12.019751 -4.686733 3.302898 0.110360 1.048460 -0.893600 0.442750 16.105609 -6.611530 0.979780 48.954737 -4.172219 -8.644115 35.615941 43.290193 8.662051 1.193388 -2.147715 -0.749510 0.597710 0.228370 -0.378150 
1.733030 16.151780 -1.315000 -0.296690 -0.860571 4.692006 -14.941037 12.400072 2.742721 9.651913 -3.240933 -22.235314 -8.870491 9.312349 27.145430 -1.002003 6.725082 2.532003 0.413510 -0.227810 0.263000 18.631562 -10.920340 2.784962 -13.393726 4.114545 -29.525513 7.937589 -10.618387 37.673744 -0.273383 -6.628048 2.306228 0.380940 0.934520 0.282020 -4.445319 0.055043 -6.654241 14.802408 -0.280989 3.269711 -6.438725 0.096345 6.541564 2.899610 -0.759360 -4.184366 -0.243149 1.125410 17.735406 -7.481000 1.685500 -1.251000 -22.880089 4.163063 -0.699654 -44.382053 4.449704 -7.302200 -37.033266 -44.500461 10.754065 -4.430294 3.203104 0.340070 0.811910 -0.693130 0.386110 16.997306 -4.896509 1.538982 49.074503 -4.140666 -10.241417 38.264824 47.634825 10.970287 1.285520 -2.019575 -0.700860 0.546020 0.177950 -0.445930 
1.811700 16.171010 -1.329640 -0.796278 -0.061380 2.360283 -14.949749 12.628301 2.528235 9.251333 -2.849846 -19.026494 -7.339938 9.728520 30.548103 -0.866344 7.038107 2.339625 0.480190 -0.203650 0.413180 18.607406 -10.684104 3.167948 -14.314496 4.942842 -31.571172 9.868119 -12.691217 42.411894 -0.600113 -7.449614 1.984897 0.300100 0.669930 0.265020 -4.398480 -0.425887 -7.002056 15.053018 -1.348804 6.916009 -6.051326 -0.541158 6.071879 3.176578 -0.100261 -4.730104 0.314063 0.678844 20.763247 -7.731240 2.433240 -5.432600 -24.779635 1.486823 -0.017100 -42.446734 5.452931 -8.211945 -37.084124 -41.107459 9.318331 -4.186026 3.143735 0.556330 0.587510 -0.494920 0.322610 18.290359 -2.778669 2.068972 48.181493 -4.064293 -11.436592 40.844538 49.250740 12.442849 1.386472 -1.903143 -0.640070 0.469630 0.119150 -0.525020 
1.880640 16.155200 -1.336220 -1.283004 0.937731 0.504313 -14.986038 12.861545 2.314549 8.844143 -2.455597 -16.303780 -5.004178 9.418696 32.815468 -0.796941 7.130713 2.270020 0.559210 -0.129930 0.504260 18.558835 -10.472256 3.496289 -15.477959 5.473552 -32.996540 12.162353 -14.522303 44.988119 -0.863259 -8.082039 1.753615 0.281670 0.516210 0.275130 -4.280870 -0.899551 -7.254698 14.702801 -2.294735 9.725467 -5.361842 -1.246763 5.727861 3.324760 0.652673 -5.127908 1.179464 0.313681 22.745213 -7.569280 2.664840 -9.196250 -26.009777 -0.570983 0.482154 -41.170921 5.775737 -8.394544 -35.303337 -36.353791 7.049394 -4.031962 3.090616 0.693200 0.450790 -0.349070 0.314690 19.316966 -1.290914 2.369382 47.275559 -3.745231 -12.088605 44.506521 52.517618 15.019608 1.438429 -1.865624 -0.587080 0.436130 0.063040 -0.553240 
1.943060 16.120150 -1.336350 -2.028789 1.341239 -0.648419 -15.011774 13.061467 2.185055 8.970896 -2.012905 -14.321602 -3.397840 9.142076 33.861212 -0.729525 7.159355 2.238706 0.616910 -0.073700 0.594840 18.509819 -10.398307 3.656832 -15.432760 5.939332 -33.676357 13.135885 -14.404730 44.031656 -0.894292 -7.915195 1.777346 0.272260 0.409430 0.307550 -4.175482 -1.145460 -7.365746 14.380990 -2.747233 11.267459 -4.788317 -1.659803 5.297539 3.672385 1.789438 -5.248850 2.898160 0.215816 23.997392 -8.619240 3.854430 -10.707800 -27.602759 -2.184628 0.884226 -39.353792 6.095115 -7.807486 -32.166663 -29.797318 4.346186 -3.965556 3.078461 0.731460 0.394700 -0.261350 0.300220 20.369592 -0.457997 2.240625 46.579093 -2.483409 -11.885033 47.150434 54.735410 17.028961 1.497891 -1.885999 -0.527420 0.369460 0.007940 -0.574110 
